<svg xmlns="http://www.w3.org/2000/svg" viewBox="0 0 2048 2048" width="2048" height="2048" role="img" aria-label="Deadwax">
  <title>Deadwax</title>
  <defs>
    <linearGradient id="markFill" x1="0%" y1="0%" x2="100%" y2="100%">
      <stop offset="0%" stop-color="#E9C17B" />
      <stop offset="55%" stop-color="#D4A843" />
      <stop offset="100%" stop-color="#A87322" />
    </linearGradient>
    <filter id="tabContrast" x="-12%" y="-12%" width="124%" height="124%">
      <feDropShadow dx="0" dy="14" stdDeviation="16" flood-color="#111318" flood-opacity="0.34" />
    </filter>
    <mask id="counterCutouts" maskUnits="userSpaceOnUse" x="0" y="0" width="2048" height="2048">
      <rect width="2048" height="2048" fill="#fff" />
      <g fill="#000" fill-rule="evenodd" stroke="none">
        <path d="M 624,783 L 650,793 L 660,802 L 701,870 L 714,908 L 714,925 L 724,949 L 735,1008 L 733,1030 L 736,1053 L 732,1065 L 723,1075 L 701,1086 L 648,1098 L 599,1102 L 581,1096 L 571,1086 L 549,1047 L 539,1013 L 539,990 L 534,975 L 537,956 L 537,906 L 549,839 L 558,821 L 565,818 L 572,827 L 576,849 L 572,866 L 573,889 L 561,933 L 561,956 L 568,971 L 579,978 L 589,979 L 602,974 L 611,961 L 613,943 L 600,891 L 602,857 L 600,807 L 604,794 L 612,786 Z"/>
        <path d="M 1451,786 L 1467,797 L 1475,806 L 1507,868 L 1511,892 L 1529,929 L 1536,961 L 1536,986 L 1532,1007 L 1517,1036 L 1492,1060 L 1421,1088 L 1383,1090 L 1352,1097 L 1351,1013 L 1344,978 L 1345,931 L 1342,868 L 1345,851 L 1341,836 L 1346,801 L 1351,790 L 1360,782 L 1368,779 L 1373,780 L 1376,793 L 1382,797 L 1394,795 L 1400,786 L 1409,790 L 1415,801 L 1415,821 L 1411,839 L 1412,862 L 1416,870 L 1425,878 L 1441,881 L 1454,874 L 1461,860 L 1460,847 L 1450,826 L 1447,813 L 1447,787 Z"/>
        <path d="M 999,1259 L 1001,1259 L 1006,1266 L 1010,1279 L 1010,1295 L 1006,1315 L 1007,1330 L 1010,1337 L 1017,1343 L 1024,1345 L 1034,1343 L 1042,1336 L 1044,1332 L 1045,1321 L 1036,1297 L 1037,1282 L 1039,1280 L 1042,1281 L 1048,1299 L 1062,1330 L 1068,1358 L 1076,1380 L 1077,1390 L 1082,1408 L 1081,1411 L 1064,1413 L 1053,1416 L 1029,1416 L 1007,1422 L 970,1422 L 968,1420 L 969,1404 L 973,1389 L 975,1369 L 980,1347 L 987,1298 Z"/>
        <path d="M 1137,538 L 1146,538 L 1149,541 L 1151,547 L 1152,560 L 1156,570 L 1157,585 L 1158,586 L 1161,611 L 1162,612 L 1162,620 L 1163,621 L 1163,668 L 1168,683 L 1168,708 L 1167,709 L 1168,753 L 1167,754 L 1166,765 L 1164,767 L 1152,768 L 1145,770 L 1136,770 L 1134,766 L 1134,748 L 1133,747 L 1133,722 L 1134,721 L 1134,713 L 1135,712 L 1134,665 L 1135,664 L 1135,653 L 1136,652 L 1136,616 L 1135,615 L 1135,605 L 1134,604 L 1134,596 L 1133,595 L 1132,570 L 1133,569 L 1133,557 L 1134,556 L 1134,543 Z"/>
      </g>
    </mask>
  </defs>
  <g fill="url(#markFill)" fill-rule="evenodd" stroke="none" filter="url(#tabContrast)" mask="url(#counterCutouts)">
    <path d="M 450,1180 L 447,1198 L 471,1212 L 494,1239 L 585,1393 L 620,1466 L 671,1607 L 674,1658 L 689,1664 L 701,1657 L 696,1616 L 713,1591 L 734,1635 L 731,1699 L 754,1712 L 773,1697 L 744,1510 L 750,1494 L 780,1538 L 826,1634 L 847,1640 L 859,1676 L 875,1675 L 881,1656 L 861,1569 L 862,1397 L 881,1298 L 933,1190 L 958,1168 L 957,1150 L 943,1148 L 811,1265 L 779,1282 L 777,1293 L 792,1316 L 792,1451 L 753,1375 L 740,1370 L 730,1377 L 720,1410 L 694,1455 L 576,1243 L 575,1215 Z"/>
    <path d="M 827,1458 L 829,1458 L 830,1459 L 830,1478 L 831,1479 L 831,1489 L 832,1490 L 832,1520 L 831,1521 L 829,1521 L 828,1520 L 828,1519 L 827,1518 L 827,1517 L 826,1516 L 826,1513 L 825,1512 L 825,1505 L 824,1504 L 824,1484 L 825,1483 L 825,1473 L 826,1472 L 826,1459 Z"/>
    <path d="M 622,1406 L 624,1406 L 625,1407 L 625,1409 L 626,1410 L 626,1412 L 627,1413 L 627,1415 L 628,1416 L 628,1418 L 629,1419 L 629,1421 L 630,1422 L 630,1423 L 631,1424 L 631,1425 L 632,1426 L 632,1427 L 633,1428 L 633,1429 L 634,1430 L 634,1431 L 636,1433 L 636,1434 L 638,1436 L 638,1437 L 639,1438 L 639,1439 L 642,1442 L 642,1443 L 644,1445 L 644,1446 L 647,1449 L 647,1450 L 649,1452 L 649,1453 L 651,1455 L 651,1456 L 652,1457 L 652,1458 L 654,1460 L 654,1461 L 655,1462 L 655,1463 L 656,1464 L 656,1465 L 657,1466 L 657,1467 L 658,1468 L 658,1469 L 659,1470 L 659,1471 L 660,1472 L 660,1473 L 661,1474 L 661,1476 L 660,1477 L 658,1477 L 657,1476 L 657,1475 L 656,1474 L 656,1473 L 655,1472 L 655,1471 L 654,1470 L 654,1469 L 653,1468 L 653,1467 L 651,1465 L 651,1464 L 649,1462 L 649,1461 L 648,1460 L 648,1459 L 645,1456 L 645,1455 L 643,1453 L 643,1452 L 640,1449 L 640,1448 L 637,1445 L 637,1444 L 635,1442 L 635,1441 L 633,1439 L 633,1438 L 632,1437 L 632,1436 L 630,1434 L 630,1432 L 629,1431 L 629,1430 L 628,1429 L 628,1428 L 627,1427 L 627,1425 L 626,1424 L 626,1422 L 625,1421 L 625,1419 L 624,1418 L 624,1416 L 623,1415 L 623,1413 L 622,1412 L 622,1410 L 621,1409 L 621,1407 Z"/>
    <path d="M 616,1390 L 618,1390 L 619,1391 L 619,1392 L 620,1393 L 620,1394 L 621,1395 L 621,1397 L 622,1398 L 622,1401 L 623,1402 L 623,1404 L 622,1405 L 620,1405 L 619,1404 L 619,1402 L 618,1401 L 618,1400 L 617,1399 L 617,1397 L 616,1396 L 616,1394 L 615,1393 L 615,1391 Z"/>
    <path d="M 880,1241 L 881,1242 L 881,1244 L 880,1245 L 880,1247 L 878,1250 L 878,1252 L 876,1255 L 876,1257 L 875,1258 L 875,1259 L 874,1260 L 874,1261 L 873,1262 L 872,1265 L 869,1268 L 869,1269 L 858,1280 L 858,1281 L 854,1285 L 854,1286 L 852,1288 L 852,1289 L 850,1292 L 850,1294 L 849,1295 L 849,1298 L 848,1299 L 848,1302 L 847,1303 L 847,1305 L 846,1306 L 846,1313 L 845,1314 L 845,1317 L 844,1318 L 844,1321 L 842,1324 L 842,1326 L 841,1327 L 841,1328 L 840,1329 L 838,1329 L 837,1328 L 837,1323 L 836,1322 L 836,1316 L 837,1315 L 837,1313 L 838,1312 L 838,1310 L 839,1309 L 839,1305 L 840,1304 L 840,1302 L 841,1301 L 841,1298 L 842,1297 L 842,1295 L 843,1294 L 843,1292 L 844,1291 L 844,1290 L 845,1289 L 845,1288 L 846,1287 L 846,1286 L 847,1285 L 848,1282 L 851,1279 L 851,1278 L 854,1275 L 854,1274 L 857,1271 L 857,1270 L 859,1268 L 859,1267 L 861,1265 L 861,1264 L 863,1262 L 863,1261 L 865,1259 L 865,1258 L 868,1255 L 868,1254 L 871,1251 L 871,1250 L 874,1247 L 874,1246 L 877,1243 L 877,1242 L 878,1241 Z"/>
    <path d="M 517,1228 L 519,1228 L 521,1230 L 522,1230 L 524,1232 L 526,1232 L 527,1233 L 528,1233 L 529,1234 L 530,1234 L 531,1235 L 532,1235 L 534,1237 L 535,1237 L 538,1240 L 538,1241 L 540,1243 L 540,1244 L 541,1245 L 541,1246 L 543,1248 L 543,1250 L 544,1251 L 544,1252 L 546,1254 L 546,1256 L 547,1257 L 547,1258 L 548,1259 L 548,1260 L 549,1261 L 549,1263 L 550,1264 L 550,1266 L 549,1267 L 547,1267 L 546,1266 L 546,1265 L 545,1264 L 545,1263 L 544,1262 L 544,1261 L 542,1259 L 542,1258 L 540,1256 L 540,1255 L 537,1252 L 537,1251 L 535,1249 L 535,1248 L 529,1242 L 528,1242 L 525,1239 L 524,1239 L 516,1231 L 516,1229 Z"/>
    <path d="M 1004,1133 L 992,1141 L 989,1161 L 944,1252 L 907,1403 L 902,1572 L 908,1589 L 915,1683 L 906,1726 L 918,1737 L 944,1730 L 971,1754 L 990,1745 L 992,1734 L 981,1707 L 977,1625 L 983,1500 L 991,1495 L 1012,1522 L 1008,1601 L 1024,1617 L 1040,1616 L 1054,1597 L 1039,1555 L 1041,1478 L 1051,1467 L 1068,1466 L 1085,1564 L 1087,1756 L 1096,1775 L 1117,1781 L 1135,1767 L 1139,1731 L 1169,1729 L 1178,1709 L 1197,1699 L 1199,1682 L 1170,1642 L 1138,1440 L 1117,1346 L 1093,1272 L 1041,1166 L 1017,1137 Z"/>
    <path d="M 941,1610 L 943,1610 L 944,1611 L 944,1613 L 945,1614 L 945,1618 L 946,1619 L 946,1622 L 947,1623 L 947,1626 L 948,1627 L 948,1630 L 949,1631 L 949,1650 L 948,1651 L 946,1651 L 945,1650 L 945,1641 L 944,1640 L 944,1631 L 943,1630 L 943,1626 L 942,1625 L 942,1622 L 941,1621 L 941,1615 L 940,1614 L 940,1611 Z"/>
    <path d="M 1111,1468 L 1113,1468 L 1114,1469 L 1114,1473 L 1115,1474 L 1115,1479 L 1116,1480 L 1116,1484 L 1117,1485 L 1117,1489 L 1118,1490 L 1118,1494 L 1119,1495 L 1119,1500 L 1120,1501 L 1120,1507 L 1121,1508 L 1121,1514 L 1122,1515 L 1122,1521 L 1123,1522 L 1123,1542 L 1122,1543 L 1120,1543 L 1119,1542 L 1119,1533 L 1118,1532 L 1118,1525 L 1117,1524 L 1117,1520 L 1116,1519 L 1116,1513 L 1115,1512 L 1115,1507 L 1114,1506 L 1114,1502 L 1113,1501 L 1113,1494 L 1112,1493 L 1112,1486 L 1111,1485 L 1111,1476 L 1110,1475 L 1110,1469 Z"/>
    <path d="M 949,1390 L 950,1391 L 950,1394 L 949,1395 L 949,1399 L 948,1400 L 948,1404 L 947,1405 L 945,1405 L 944,1404 L 944,1400 L 945,1399 L 945,1395 L 946,1394 L 946,1391 L 947,1390 Z"/>
    <path d="M 999,1259 L 1001,1259 L 1006,1266 L 1010,1279 L 1010,1295 L 1006,1315 L 1007,1330 L 1010,1337 L 1017,1343 L 1024,1345 L 1034,1343 L 1042,1336 L 1044,1332 L 1045,1321 L 1036,1297 L 1037,1282 L 1039,1280 L 1042,1281 L 1048,1299 L 1062,1330 L 1068,1358 L 1076,1380 L 1077,1390 L 1082,1408 L 1081,1411 L 1064,1413 L 1053,1416 L 1029,1416 L 1007,1422 L 970,1422 L 968,1420 L 969,1404 L 973,1389 L 975,1369 L 980,1347 L 987,1298 Z"/>
    <path d="M 609,343 L 557,378 L 472,471 L 414,574 L 371,713 L 360,829 L 377,926 L 394,975 L 411,999 L 447,1081 L 448,1132 L 456,1140 L 470,1138 L 477,1127 L 476,1106 L 496,1128 L 501,1147 L 536,1173 L 620,1198 L 648,1235 L 649,1325 L 662,1344 L 680,1349 L 697,1341 L 704,1326 L 690,1268 L 696,1219 L 716,1207 L 738,1208 L 746,1218 L 743,1254 L 763,1263 L 775,1250 L 768,1211 L 781,1191 L 790,1191 L 804,1205 L 827,1204 L 837,1191 L 846,1122 L 841,1009 L 831,990 L 831,933 L 816,862 L 812,755 L 797,625 L 773,520 L 744,465 L 698,410 L 619,345 Z"/>
    <path d="M 666,1211 L 668,1211 L 669,1212 L 669,1215 L 670,1216 L 670,1220 L 671,1221 L 671,1226 L 670,1227 L 668,1227 L 667,1226 L 667,1221 L 666,1220 L 666,1217 L 665,1216 L 665,1212 Z"/>
    <path d="M 463,1037 L 465,1037 L 466,1038 L 466,1039 L 468,1041 L 468,1042 L 471,1045 L 471,1046 L 475,1050 L 475,1051 L 478,1054 L 478,1055 L 484,1061 L 484,1063 L 483,1064 L 481,1064 L 473,1056 L 473,1055 L 469,1051 L 469,1050 L 467,1048 L 467,1047 L 465,1045 L 465,1044 L 463,1042 L 463,1041 L 462,1040 L 462,1038 Z"/>
    <path d="M 789,1005 L 791,1005 L 792,1006 L 792,1010 L 793,1011 L 793,1031 L 792,1032 L 790,1032 L 789,1031 L 789,1020 L 788,1019 L 788,1006 Z"/>
    <path d="M 786,961 L 788,961 L 789,962 L 789,965 L 790,966 L 790,971 L 791,972 L 791,984 L 790,985 L 788,985 L 787,984 L 787,974 L 786,973 L 786,967 L 785,966 L 785,962 Z"/>
    <path d="M 422,936 L 424,936 L 425,937 L 425,940 L 427,943 L 427,945 L 428,946 L 428,948 L 429,949 L 429,950 L 431,953 L 431,955 L 432,956 L 432,957 L 433,958 L 433,959 L 434,960 L 434,961 L 435,962 L 435,963 L 436,964 L 436,965 L 437,966 L 437,967 L 438,968 L 438,969 L 439,970 L 439,971 L 440,972 L 440,973 L 441,974 L 441,975 L 442,976 L 442,977 L 443,978 L 443,979 L 444,980 L 444,981 L 445,982 L 445,983 L 447,986 L 447,988 L 448,989 L 448,991 L 449,992 L 449,994 L 450,995 L 450,997 L 452,1000 L 452,1003 L 454,1006 L 454,1009 L 455,1010 L 455,1012 L 456,1013 L 456,1015 L 457,1016 L 457,1018 L 458,1019 L 458,1022 L 457,1023 L 455,1023 L 454,1022 L 454,1020 L 453,1019 L 453,1017 L 451,1014 L 451,1012 L 450,1011 L 450,1009 L 449,1008 L 449,1006 L 447,1003 L 447,1001 L 445,998 L 445,996 L 443,993 L 443,991 L 442,990 L 442,989 L 441,988 L 441,987 L 440,986 L 440,985 L 439,984 L 439,983 L 437,980 L 437,978 L 436,977 L 436,976 L 434,974 L 434,972 L 432,970 L 432,968 L 431,967 L 431,966 L 430,965 L 430,964 L 428,961 L 428,959 L 426,956 L 426,954 L 425,953 L 425,951 L 424,950 L 424,948 L 423,947 L 423,944 L 422,943 L 422,941 L 421,940 L 421,937 Z"/>
    <path d="M 767,790 L 769,790 L 770,791 L 770,793 L 771,794 L 771,796 L 772,797 L 772,798 L 773,799 L 773,801 L 774,802 L 774,804 L 775,805 L 775,807 L 776,808 L 776,810 L 777,811 L 777,813 L 778,814 L 778,817 L 779,818 L 779,822 L 780,823 L 780,846 L 779,847 L 777,847 L 776,846 L 776,828 L 775,827 L 775,822 L 774,821 L 774,817 L 773,816 L 773,813 L 772,812 L 772,810 L 771,809 L 771,807 L 770,806 L 770,804 L 769,803 L 769,800 L 768,799 L 768,797 L 767,796 L 767,794 L 766,793 L 766,791 Z"/>
    <path d="M 624,783 L 650,793 L 660,802 L 701,870 L 714,908 L 714,925 L 724,949 L 735,1008 L 733,1030 L 736,1053 L 732,1065 L 723,1075 L 701,1086 L 648,1098 L 599,1102 L 581,1096 L 571,1086 L 549,1047 L 539,1013 L 539,990 L 534,975 L 537,956 L 537,906 L 549,839 L 558,821 L 565,818 L 572,827 L 576,849 L 572,866 L 573,889 L 561,933 L 561,956 L 568,971 L 579,978 L 589,979 L 602,974 L 611,961 L 613,943 L 600,891 L 602,857 L 600,807 L 604,794 L 612,786 Z"/>
    <path d="M 405,781 L 407,781 L 408,782 L 408,795 L 407,796 L 407,798 L 408,799 L 408,819 L 409,820 L 409,827 L 410,828 L 410,835 L 411,836 L 411,841 L 412,842 L 412,847 L 413,848 L 413,852 L 414,853 L 414,857 L 415,858 L 415,863 L 416,864 L 416,868 L 417,869 L 417,873 L 418,874 L 418,878 L 417,879 L 415,879 L 414,878 L 414,875 L 413,874 L 413,872 L 412,871 L 412,868 L 411,867 L 411,864 L 410,863 L 410,860 L 409,859 L 409,856 L 408,855 L 408,852 L 407,851 L 407,847 L 406,846 L 406,843 L 405,842 L 405,839 L 404,838 L 404,834 L 403,833 L 403,828 L 402,827 L 402,818 L 401,817 L 401,805 L 402,804 L 402,797 L 403,796 L 403,789 L 404,788 L 404,782 Z"/>
    <path d="M 737,508 L 739,508 L 740,509 L 740,510 L 741,511 L 741,513 L 742,514 L 742,516 L 743,517 L 743,518 L 744,519 L 744,521 L 745,522 L 745,524 L 746,525 L 746,527 L 747,528 L 747,530 L 746,531 L 744,531 L 743,530 L 743,528 L 742,527 L 742,525 L 741,524 L 741,522 L 740,521 L 740,520 L 739,519 L 739,517 L 738,516 L 738,515 L 737,514 L 737,512 L 736,511 L 736,509 Z"/>
    <path d="M 725,485 L 727,485 L 728,486 L 728,488 L 729,488 L 730,489 L 730,491 L 731,491 L 732,492 L 732,494 L 731,495 L 729,495 L 728,494 L 728,492 L 727,492 L 726,491 L 726,489 L 725,489 L 724,488 L 724,486 Z"/>
    <path d="M 709,470 L 710,469 L 712,469 L 722,479 L 722,481 L 721,482 L 719,482 L 709,472 Z"/>
    <path d="M 1223,214 L 1213,231 L 1289,895 L 1292,1013 L 1275,1133 L 1303,1229 L 1304,1301 L 1325,1321 L 1355,1308 L 1343,1211 L 1380,1175 L 1428,1167 L 1438,1228 L 1468,1231 L 1426,1313 L 1343,1419 L 1176,1153 L 1054,1137 L 1158,1286 L 1159,1404 L 1184,1415 L 1204,1399 L 1196,1318 L 1292,1492 L 1185,1625 L 1249,1722 L 1333,1588 L 1350,1619 L 1342,1678 L 1358,1696 L 1382,1691 L 1409,1645 L 1460,1625 L 1395,1505 L 1452,1430 L 1460,1463 L 1482,1459 L 1484,1396 L 1510,1354 L 1510,1384 L 1535,1382 L 1553,1281 L 1595,1199 L 1584,1181 L 1552,1193 L 1503,1177 L 1491,1202 L 1471,1207 L 1461,1169 L 1590,1096 L 1598,1147 L 1631,1145 L 1621,1079 L 1691,955 L 1711,837 L 1671,628 L 1576,463 L 1502,381 L 1397,296 L 1276,224 Z"/>
    <path d="M 1379,1566 L 1381,1566 L 1387,1572 L 1387,1573 L 1390,1576 L 1390,1577 L 1392,1579 L 1392,1580 L 1393,1581 L 1393,1582 L 1394,1583 L 1394,1584 L 1395,1585 L 1395,1586 L 1396,1587 L 1396,1588 L 1397,1589 L 1397,1590 L 1398,1591 L 1398,1592 L 1399,1593 L 1399,1595 L 1400,1596 L 1400,1597 L 1401,1598 L 1401,1599 L 1402,1600 L 1402,1601 L 1403,1602 L 1403,1603 L 1404,1604 L 1404,1606 L 1406,1608 L 1406,1611 L 1401,1616 L 1398,1616 L 1393,1611 L 1393,1603 L 1392,1602 L 1392,1598 L 1391,1597 L 1391,1594 L 1390,1593 L 1390,1591 L 1389,1590 L 1389,1588 L 1388,1587 L 1388,1586 L 1387,1585 L 1387,1584 L 1386,1583 L 1386,1582 L 1385,1581 L 1385,1580 L 1384,1579 L 1384,1578 L 1383,1577 L 1383,1576 L 1381,1574 L 1381,1573 L 1380,1572 L 1380,1571 L 1378,1569 L 1378,1567 Z"/>
    <path d="M 1301,1528 L 1302,1529 L 1302,1532 L 1301,1533 L 1301,1535 L 1300,1536 L 1300,1539 L 1299,1540 L 1299,1541 L 1298,1542 L 1298,1543 L 1297,1544 L 1297,1546 L 1296,1547 L 1296,1548 L 1295,1549 L 1295,1550 L 1293,1552 L 1293,1553 L 1290,1556 L 1290,1557 L 1287,1560 L 1286,1560 L 1286,1561 L 1285,1562 L 1284,1562 L 1279,1567 L 1277,1567 L 1276,1566 L 1276,1564 L 1281,1559 L 1281,1558 L 1284,1555 L 1284,1554 L 1285,1553 L 1285,1552 L 1287,1550 L 1287,1549 L 1288,1548 L 1288,1547 L 1290,1545 L 1290,1544 L 1291,1543 L 1291,1542 L 1292,1541 L 1292,1540 L 1294,1538 L 1294,1537 L 1295,1536 L 1295,1535 L 1296,1534 L 1296,1533 L 1297,1532 L 1297,1531 L 1298,1530 L 1298,1529 L 1299,1528 Z"/>
    <path d="M 1389,1430 L 1390,1431 L 1390,1433 L 1382,1441 L 1382,1442 L 1380,1444 L 1380,1445 L 1378,1447 L 1378,1448 L 1377,1449 L 1377,1450 L 1375,1452 L 1375,1453 L 1371,1457 L 1370,1457 L 1369,1458 L 1367,1458 L 1366,1457 L 1366,1453 L 1368,1451 L 1368,1450 L 1369,1449 L 1369,1448 L 1371,1446 L 1371,1445 L 1373,1443 L 1373,1442 L 1379,1436 L 1380,1436 L 1383,1433 L 1384,1433 L 1387,1430 Z"/>
    <path d="M 1520,1255 L 1521,1256 L 1521,1259 L 1520,1260 L 1520,1263 L 1519,1264 L 1519,1267 L 1518,1268 L 1518,1271 L 1517,1272 L 1517,1274 L 1516,1275 L 1516,1277 L 1515,1278 L 1515,1279 L 1514,1280 L 1514,1281 L 1512,1283 L 1512,1284 L 1510,1286 L 1510,1287 L 1508,1289 L 1506,1289 L 1505,1288 L 1505,1286 L 1507,1284 L 1507,1283 L 1508,1282 L 1508,1281 L 1509,1280 L 1509,1279 L 1510,1278 L 1510,1277 L 1511,1276 L 1511,1275 L 1512,1274 L 1512,1273 L 1513,1272 L 1513,1269 L 1514,1268 L 1514,1266 L 1515,1265 L 1515,1263 L 1516,1262 L 1516,1260 L 1517,1259 L 1517,1256 L 1518,1255 Z"/>
    <path d="M 1197,1238 L 1198,1237 L 1200,1237 L 1208,1245 L 1208,1247 L 1207,1248 L 1205,1248 L 1197,1240 Z"/>
    <path d="M 1642,962 L 1643,963 L 1643,965 L 1642,966 L 1642,968 L 1641,969 L 1641,971 L 1640,972 L 1640,975 L 1639,976 L 1639,978 L 1638,979 L 1638,982 L 1637,983 L 1637,985 L 1636,986 L 1636,987 L 1635,988 L 1635,990 L 1634,991 L 1634,992 L 1633,993 L 1633,995 L 1632,996 L 1632,998 L 1631,999 L 1631,1000 L 1630,1001 L 1630,1003 L 1629,1004 L 1629,1005 L 1628,1006 L 1628,1007 L 1627,1008 L 1627,1009 L 1626,1010 L 1626,1012 L 1625,1013 L 1625,1014 L 1624,1015 L 1624,1016 L 1623,1017 L 1623,1018 L 1622,1019 L 1620,1019 L 1619,1018 L 1619,1016 L 1620,1015 L 1620,1013 L 1621,1012 L 1621,1009 L 1622,1008 L 1622,1005 L 1623,1004 L 1623,1001 L 1624,1000 L 1624,998 L 1625,997 L 1625,994 L 1626,993 L 1626,992 L 1627,991 L 1627,989 L 1628,988 L 1628,986 L 1629,985 L 1629,984 L 1630,983 L 1630,981 L 1631,980 L 1631,979 L 1632,978 L 1632,976 L 1633,975 L 1633,974 L 1634,973 L 1634,972 L 1635,971 L 1635,970 L 1636,969 L 1636,968 L 1637,967 L 1637,966 L 1638,965 L 1638,964 L 1640,962 Z"/>
    <path d="M 1675,831 L 1676,832 L 1676,850 L 1675,851 L 1675,861 L 1674,862 L 1674,870 L 1673,871 L 1673,878 L 1672,879 L 1672,885 L 1671,886 L 1671,891 L 1670,892 L 1670,898 L 1669,899 L 1669,903 L 1668,904 L 1666,904 L 1665,903 L 1665,894 L 1664,893 L 1664,887 L 1665,886 L 1665,878 L 1666,877 L 1666,873 L 1667,872 L 1667,867 L 1668,866 L 1668,861 L 1669,860 L 1669,855 L 1670,854 L 1670,848 L 1671,847 L 1671,841 L 1672,840 L 1672,832 L 1673,831 Z"/>
    <path d="M 1451,786 L 1467,797 L 1475,806 L 1507,868 L 1511,892 L 1529,929 L 1536,961 L 1536,986 L 1532,1007 L 1517,1036 L 1492,1060 L 1421,1088 L 1383,1090 L 1352,1097 L 1351,1013 L 1344,978 L 1345,931 L 1342,868 L 1345,851 L 1341,836 L 1346,801 L 1351,790 L 1360,782 L 1368,779 L 1373,780 L 1376,793 L 1382,797 L 1394,795 L 1400,786 L 1409,790 L 1415,801 L 1415,821 L 1411,839 L 1412,862 L 1416,870 L 1425,878 L 1441,881 L 1454,874 L 1461,860 L 1460,847 L 1450,826 L 1447,813 L 1447,787 Z"/>
    <path d="M 1290,630 L 1292,630 L 1293,631 L 1293,634 L 1294,635 L 1294,638 L 1295,639 L 1295,643 L 1296,644 L 1296,647 L 1297,648 L 1297,651 L 1298,652 L 1298,656 L 1299,657 L 1299,662 L 1300,663 L 1300,667 L 1301,668 L 1301,673 L 1302,674 L 1302,680 L 1303,681 L 1303,696 L 1304,697 L 1304,746 L 1303,747 L 1301,747 L 1300,746 L 1300,715 L 1299,714 L 1299,698 L 1298,697 L 1298,687 L 1297,686 L 1297,679 L 1296,678 L 1296,671 L 1295,670 L 1295,663 L 1294,662 L 1294,657 L 1293,656 L 1293,651 L 1292,650 L 1292,646 L 1291,645 L 1291,640 L 1290,639 L 1290,635 L 1289,634 L 1289,631 Z"/>
    <path d="M 1581,519 L 1583,519 L 1584,520 L 1584,522 L 1585,522 L 1586,523 L 1586,524 L 1587,525 L 1587,527 L 1588,527 L 1589,528 L 1589,529 L 1591,531 L 1591,532 L 1593,534 L 1593,535 L 1594,536 L 1594,537 L 1596,539 L 1596,540 L 1597,541 L 1597,542 L 1598,543 L 1598,544 L 1600,546 L 1600,547 L 1601,548 L 1601,549 L 1602,550 L 1602,551 L 1603,552 L 1603,553 L 1605,555 L 1605,556 L 1606,557 L 1606,558 L 1607,559 L 1607,560 L 1608,561 L 1608,562 L 1609,563 L 1609,564 L 1610,565 L 1610,566 L 1611,567 L 1611,568 L 1612,569 L 1612,570 L 1613,571 L 1613,572 L 1614,573 L 1614,574 L 1615,575 L 1615,576 L 1616,577 L 1616,578 L 1618,581 L 1618,583 L 1619,584 L 1619,585 L 1620,586 L 1620,587 L 1622,590 L 1622,592 L 1621,593 L 1619,593 L 1618,592 L 1618,591 L 1617,590 L 1617,589 L 1616,588 L 1616,587 L 1615,586 L 1615,585 L 1614,584 L 1614,583 L 1613,582 L 1613,581 L 1611,579 L 1611,578 L 1610,577 L 1610,576 L 1609,575 L 1609,574 L 1608,573 L 1608,572 L 1607,571 L 1607,570 L 1606,569 L 1606,568 L 1605,567 L 1605,566 L 1603,564 L 1603,563 L 1602,562 L 1602,561 L 1601,560 L 1601,559 L 1600,558 L 1600,557 L 1599,556 L 1599,555 L 1597,553 L 1597,552 L 1596,551 L 1596,550 L 1595,549 L 1595,548 L 1594,547 L 1594,546 L 1593,545 L 1593,544 L 1592,543 L 1592,542 L 1591,541 L 1591,540 L 1589,538 L 1589,537 L 1588,536 L 1588,535 L 1587,534 L 1587,533 L 1585,530 L 1585,528 L 1584,528 L 1583,527 L 1583,526 L 1582,525 L 1582,523 L 1581,523 L 1580,522 L 1580,520 Z"/>
    <path d="M 1274,506 L 1276,506 L 1277,507 L 1277,511 L 1278,512 L 1278,517 L 1279,518 L 1279,523 L 1280,524 L 1280,528 L 1281,529 L 1281,534 L 1282,535 L 1282,540 L 1283,541 L 1283,548 L 1284,549 L 1284,555 L 1285,556 L 1285,563 L 1286,564 L 1286,569 L 1285,570 L 1283,570 L 1282,569 L 1282,564 L 1281,563 L 1281,558 L 1280,557 L 1280,552 L 1279,551 L 1279,546 L 1278,545 L 1278,540 L 1277,539 L 1277,533 L 1276,532 L 1276,527 L 1275,526 L 1275,520 L 1274,519 L 1274,513 L 1273,512 L 1273,507 Z"/>
    <path d="M 1266,442 L 1268,442 L 1269,443 L 1269,446 L 1270,447 L 1270,452 L 1271,453 L 1271,458 L 1272,459 L 1272,463 L 1273,464 L 1273,471 L 1272,472 L 1270,472 L 1269,471 L 1269,465 L 1268,464 L 1268,459 L 1267,458 L 1267,453 L 1266,452 L 1266,447 L 1265,446 L 1265,443 Z"/>
    <path d="M 1474,389 L 1475,388 L 1477,388 L 1494,405 L 1494,407 L 1493,408 L 1491,408 L 1474,391 Z"/>
    <path d="M 1380,313 L 1381,312 L 1383,312 L 1386,315 L 1387,315 L 1390,318 L 1391,318 L 1394,321 L 1395,321 L 1399,325 L 1400,325 L 1406,331 L 1407,331 L 1411,335 L 1412,335 L 1416,339 L 1417,339 L 1426,347 L 1427,347 L 1429,349 L 1430,349 L 1438,356 L 1439,356 L 1442,359 L 1443,359 L 1446,362 L 1447,362 L 1452,367 L 1453,367 L 1458,372 L 1459,372 L 1465,378 L 1465,379 L 1467,379 L 1474,386 L 1474,388 L 1473,389 L 1471,389 L 1464,382 L 1464,381 L 1462,381 L 1453,373 L 1452,373 L 1445,367 L 1444,367 L 1442,365 L 1441,365 L 1438,362 L 1437,362 L 1434,359 L 1433,359 L 1430,356 L 1429,356 L 1426,353 L 1425,353 L 1421,349 L 1420,349 L 1417,346 L 1416,346 L 1406,337 L 1405,337 L 1400,332 L 1399,332 L 1384,318 L 1383,318 L 1380,315 Z"/>
    <path d="M 1058,198 L 1051,206 L 1047,578 L 1052,662 L 1039,888 L 1054,1055 L 1047,1079 L 1023,1104 L 1021,1116 L 1037,1123 L 1057,1111 L 1110,1109 L 1140,1124 L 1154,1120 L 1156,1111 L 1141,1084 L 1133,1014 L 1145,874 L 1158,853 L 1166,865 L 1181,952 L 1167,1128 L 1176,1136 L 1198,1134 L 1228,1150 L 1241,1174 L 1257,1181 L 1268,1168 L 1267,1103 L 1255,1058 L 1250,889 L 1256,864 L 1250,844 L 1248,730 L 1234,672 L 1229,587 L 1198,377 L 1189,243 L 1177,222 L 1138,220 Z"/>
    <path d="M 1080,1032 L 1082,1032 L 1083,1033 L 1083,1048 L 1084,1049 L 1084,1056 L 1085,1057 L 1085,1064 L 1086,1065 L 1086,1078 L 1084,1080 L 1083,1080 L 1082,1081 L 1078,1081 L 1076,1079 L 1076,1077 L 1077,1076 L 1077,1072 L 1078,1071 L 1078,1060 L 1079,1059 L 1079,1033 Z"/>
    <path d="M 1219,1001 L 1221,1001 L 1222,1002 L 1222,1012 L 1221,1013 L 1219,1013 L 1218,1012 L 1218,1002 Z"/>
    <path d="M 1217,907 L 1219,907 L 1220,908 L 1220,914 L 1221,915 L 1221,923 L 1222,924 L 1222,929 L 1223,930 L 1223,933 L 1224,934 L 1224,937 L 1225,938 L 1225,941 L 1226,942 L 1226,947 L 1227,948 L 1227,979 L 1226,980 L 1224,980 L 1223,979 L 1223,955 L 1222,954 L 1222,948 L 1221,947 L 1221,943 L 1220,942 L 1220,938 L 1219,937 L 1219,933 L 1218,932 L 1218,928 L 1217,927 L 1217,915 L 1216,914 L 1216,908 Z"/>
    <path d="M 1081,847 L 1082,848 L 1082,874 L 1081,875 L 1081,879 L 1080,880 L 1080,884 L 1079,885 L 1079,890 L 1078,891 L 1076,891 L 1075,890 L 1075,885 L 1076,884 L 1076,877 L 1077,876 L 1077,869 L 1078,868 L 1078,848 L 1079,847 Z"/>
    <path d="M 1074,566 L 1076,566 L 1077,567 L 1077,575 L 1078,576 L 1078,583 L 1079,584 L 1079,594 L 1080,595 L 1080,604 L 1081,605 L 1081,621 L 1082,622 L 1082,639 L 1081,640 L 1081,652 L 1080,653 L 1080,660 L 1079,661 L 1079,671 L 1078,672 L 1078,682 L 1077,683 L 1077,693 L 1075,696 L 1073,696 L 1072,695 L 1072,681 L 1073,680 L 1073,651 L 1074,650 L 1074,631 L 1075,630 L 1075,606 L 1074,605 L 1074,581 L 1073,580 L 1073,567 Z"/>
    <path d="M 1073,547 L 1075,547 L 1076,548 L 1076,562 L 1075,563 L 1073,563 L 1072,562 L 1072,548 Z"/>
    <path d="M 1137,538 L 1146,538 L 1149,541 L 1151,547 L 1152,560 L 1156,570 L 1157,585 L 1158,586 L 1161,611 L 1162,612 L 1162,620 L 1163,621 L 1163,668 L 1168,683 L 1168,708 L 1167,709 L 1168,753 L 1167,754 L 1166,765 L 1164,767 L 1152,768 L 1145,770 L 1136,770 L 1134,766 L 1134,748 L 1133,747 L 1133,722 L 1134,721 L 1134,713 L 1135,712 L 1134,665 L 1135,664 L 1135,653 L 1136,652 L 1136,616 L 1135,615 L 1135,605 L 1134,604 L 1134,596 L 1133,595 L 1132,570 L 1133,569 L 1133,557 L 1134,556 L 1134,543 Z"/>
    <path d="M 1071,365 L 1073,365 L 1074,366 L 1074,380 L 1073,381 L 1073,445 L 1072,446 L 1070,446 L 1069,445 L 1069,432 L 1068,431 L 1068,408 L 1069,407 L 1069,379 L 1070,378 L 1070,366 Z"/>
    <path d="M 1039,148 L 943,208 L 764,266 L 741,280 L 720,281 L 706,293 L 651,302 L 642,311 L 647,326 L 674,332 L 745,392 L 784,454 L 812,540 L 833,695 L 831,743 L 868,978 L 872,1113 L 855,1169 L 864,1184 L 874,1182 L 909,1133 L 955,1095 L 996,1074 L 1038,1078 L 1046,1071 L 1006,983 L 995,923 L 978,926 L 973,945 L 932,995 L 937,811 L 974,785 L 991,791 L 999,811 L 1014,800 L 979,658 L 966,658 L 949,684 L 894,715 L 877,633 L 864,468 L 864,368 L 884,361 L 898,384 L 889,439 L 894,475 L 914,491 L 941,477 L 945,458 L 929,412 L 927,362 L 949,357 L 960,384 L 997,369 L 1017,248 L 1052,163 Z"/>
    <path d="M 942,1077 L 942,1079 L 941,1080 L 939,1080 L 938,1081 L 937,1081 L 936,1082 L 934,1082 L 933,1083 L 932,1083 L 931,1084 L 930,1084 L 928,1086 L 927,1086 L 925,1088 L 924,1088 L 918,1094 L 918,1095 L 917,1096 L 917,1097 L 916,1098 L 914,1098 L 913,1097 L 913,1095 L 914,1094 L 914,1093 L 915,1092 L 915,1091 L 917,1089 L 917,1088 L 923,1082 L 924,1082 L 925,1081 L 926,1081 L 927,1080 L 928,1080 L 929,1079 L 930,1079 L 931,1078 L 933,1078 L 934,1077 L 937,1077 L 938,1076 L 941,1076 Z"/>
    <path d="M 893,821 L 895,821 L 896,822 L 896,826 L 897,827 L 897,839 L 898,840 L 898,849 L 897,850 L 895,850 L 894,849 L 894,841 L 893,840 L 893,831 L 892,830 L 892,822 Z"/>
    <path d="M 850,658 L 852,658 L 853,659 L 853,664 L 854,665 L 854,672 L 855,673 L 855,682 L 856,683 L 856,691 L 857,692 L 857,701 L 856,702 L 854,702 L 853,701 L 853,692 L 852,691 L 852,684 L 851,683 L 851,675 L 850,674 L 850,665 L 849,664 L 849,659 Z"/>
    <path d="M 842,574 L 844,574 L 845,575 L 845,581 L 846,582 L 846,588 L 847,589 L 847,606 L 846,607 L 844,607 L 843,606 L 843,603 L 842,602 L 842,599 L 841,598 L 841,575 Z"/>
    <path d="M 914,243 L 914,245 L 913,246 L 911,246 L 910,247 L 908,247 L 907,248 L 906,248 L 905,249 L 903,249 L 902,250 L 901,250 L 900,251 L 898,251 L 897,252 L 896,252 L 895,253 L 894,253 L 893,254 L 892,254 L 891,255 L 890,255 L 889,256 L 888,256 L 887,257 L 886,257 L 885,258 L 884,258 L 883,259 L 882,259 L 881,260 L 880,260 L 879,261 L 878,261 L 877,262 L 873,262 L 872,263 L 870,263 L 869,264 L 867,264 L 866,263 L 866,261 L 867,260 L 868,260 L 869,259 L 871,259 L 872,258 L 874,258 L 875,257 L 877,257 L 878,256 L 879,256 L 880,255 L 881,255 L 882,254 L 883,254 L 884,253 L 885,253 L 886,252 L 887,252 L 888,251 L 889,251 L 890,250 L 891,250 L 892,249 L 893,249 L 894,248 L 895,248 L 896,247 L 898,247 L 899,246 L 900,246 L 901,245 L 903,245 L 904,244 L 906,244 L 907,243 L 910,243 L 911,242 L 913,242 Z"/>
  </g>
</svg>
